<?xml version="1.0" encoding="iso-8859-1"?>
<!-- Generator: Adobe Illustrator 19.0.0, SVG Export Plug-In . SVG Version: 6.00 Build 0)  -->
<svg version="1.1" id="Layer_1" xmlns="http://www.w3.org/2000/svg" xmlns:xlink="http://www.w3.org/1999/xlink" x="0px" y="0px"
	 viewBox="0 0 512 512" style="enable-background:new 0 0 512 512;" xml:space="preserve">
<g>
	<g>
		<path d="M495.039,40.803H16.961C7.7,40.803,0,48.312,0,57.573v318.988c0,9.261,7.7,16.382,16.961,16.382h178.672v44.716h-71.227
			c-9.261,0-16.769,7.508-16.769,16.769c0,9.261,7.508,16.769,16.769,16.769h263.188c9.261,0,16.769-7.508,16.769-16.769
			c0-9.261-7.508-16.769-16.769-16.769h-71.227v-44.716h178.672c9.261,0,16.961-7.121,16.961-16.382V57.573
			C512,48.312,504.3,40.803,495.039,40.803z M282.83,437.659H229.17v-33.537h53.659V437.659z M478.463,359.406H33.537V74.341
			h444.926V359.406z"/>
	</g>
</g>
<g>
</g>
<g>
</g>
<g>
</g>
<g>
</g>
<g>
</g>
<g>
</g>
<g>
</g>
<g>
</g>
<g>
</g>
<g>
</g>
<g>
</g>
<g>
</g>
<g>
</g>
<g>
</g>
<g>
</g>
</svg>
